<svg version="1.2" xmlns="http://www.w3.org/2000/svg" viewBox="0 0 1080 1080" width="1080" height="1080">
	<defs>
		<linearGradient id="g1" x2="1" gradientUnits="userSpaceOnUse" gradientTransform="matrix(0,670.298,-1060.638,0,1125.152,236.954)">
			<stop offset="0" stop-color="#407e42"/>
			<stop offset="1" stop-color="#60b769"/>
		</linearGradient>
	</defs>
	<style>
		.s0 { fill: #67bd5a } 
		.s1 { fill: url(#g1) } 
		.s2 { fill: #ffffff } 
	</style>
	<g id="Layer 1">
		<g id="&lt;Group&gt;">
			<g id="&lt;Group&gt;">
				<path id="&lt;Path&gt;" class="s0" d="m404.48 876.08v-361.89c0-51.34 27.8-98.66 72.66-123.65l273.43-152.29c34.76-19.35 77.52 5.77 77.52 45.56v321.16c0 54.64-30.16 104.82-78.4 130.47l-307.34 163.4c-17.17 9.13-37.87-3.32-37.87-22.76z"/>
			</g>
			<g id="&lt;Group&gt;">
				<path id="&lt;Path&gt;" class="s0" d="m625.29 258.52l-187.84 104.61c-56.73 31.58-91.96 91.53-91.96 156.42v257.92l-78.02-186.07c-33.4-79.58-11.53-171.64 54.05-227.73l211.7-180.98c23.43-20.05 59.63-10.72 70.46 18.13z"/>
			</g>
			<path id="&lt;Path&gt;" class="s1" d="m383.03 881.44v-361.88c0-51.35 27.81-98.67 72.66-123.65l273.44-152.3c34.75-19.35 77.51 5.78 77.51 45.56v321.16c0 54.65-30.15 104.83-78.4 130.48l-307.34 163.39c-17.16 9.13-37.87-3.32-37.87-22.76z"/>
			<g id="&lt;Group&gt;">
				<path id="&lt;Path&gt;" class="s2" d="m644.42 323.68c-0.05-0.25-30.45 11.99-32.12 12.81-26.23 12.92-50.29 30.25-71.22 50.64-72.23 70.37-117.17 188.1-84.19 286.99 6.84 20.5 16.53 40.01 28.6 57.94 7.31 10.86 15.48 21.14 24.34 30.77 3.77 4.09 25.71 30.14 30.75 28.76 0.01 0 240.53-65.72 223.44-333.85-0.1-1.69-35.37 6.69-37.22 7.27-30.79 9.62-59 26.68-82.82 48.33-45.56 41.42-68.2 96.71-91.31 152.25-5.6 13.47-38.65 93.43-57.66 57.66-2.14-4.02-3.31-8.76-4.37-13.15-13.5-55.94 38.47-107.44 71.31-145.85 29.49-34.49 59.58-69.75 74.44-113.37 13.61-39.95 15.14-85.78 8.03-127.2z"/>
			</g>
		</g>
	</g>
</svg>